# This file uses centimeters as units for non-parametric coordinates.

mtllib jump_pad.mtl
g default
v -6.944445 2.477933 6.944445
v 6.944445 2.477933 6.944445
v -6.944445 3.253890 6.944444
v 6.944445 3.253890 6.944445
v -6.944445 3.253890 -6.944445
v 6.944445 3.253890 -6.944445
v -6.944445 2.477933 -6.944444
v 6.944445 2.477933 -6.944445
v -9.375000 3.351112 0.000000
v 7.675868 2.755711 -7.675868
v 0.000000 2.380711 -9.375000
v -7.675868 2.755711 -7.675868
v 9.375000 2.380711 0.000000
v -9.375000 2.380711 0.000000
v 0.000000 2.380711 9.375000
v 7.675868 2.755711 7.675868
v 0.000000 3.351112 9.375000
v -7.675868 2.755711 7.675868
v 9.375000 3.351112 0.000000
v 0.000000 3.351112 -9.375000
v 0.000000 2.755711 10.234492
v 0.000000 2.755711 -10.234492
v 0.000000 2.255711 0.000000
v 10.234492 2.755711 0.000000
v -10.234492 2.755711 0.000000
v -6.250000 3.586152 6.249999
v 0.000000 3.673652 8.437500
v 0.000000 3.786152 0.000000
v -8.437500 3.673652 0.000000
v 6.250000 3.586152 6.250000
v 8.437500 3.673652 0.000000
v 6.250000 3.586152 -6.250000
v 0.000000 3.673652 -8.437500
v -6.250000 3.586152 -6.250000
vt 0.102749 0.249119
vt 0.117919 0.432827
vt 0.536883 0.931361
vt 0.740133 0.968342
vt 0.243304 0.567842
vt 0.233599 0.592919
vt 0.426506 0.769912
vt 0.549796 0.908196
vt 0.732215 0.940475
vt 0.725083 0.915381
vt 0.561921 0.886441
vt 0.664498 0.702285
vt 0.848654 0.804961
vt 0.451602 0.762780
vt 0.480731 0.599488
vt 0.603445 0.489335
vt 0.766950 0.518168
vt 0.877501 0.641756
vt 0.902596 0.634625
vt 0.779078 0.496412
vt 0.568803 0.233705
vt 0.431249 0.083242
vt 0.596158 0.464289
vt 0.588048 0.436483
vt 0.562790 0.426827
vt 0.547192 0.243252
vt 0.421538 0.108321
vt 0.332482 0.338063
vt 0.237775 0.123582
vt 0.426711 0.552692
vt 0.436113 0.574355
vt 0.459117 0.587317
vt 0.893573 0.830000
vt 0.870408 0.817087
vt 0.077670 0.239408
vt 0.228227 0.101965
vt 0.930463 0.626706
vt 0.398631 0.777834
vt 0.791997 0.473245
vt 0.096302 0.442376
vn -0.052522 -0.997238 0.052522
vn -0.000000 -0.998961 0.045582
vn -0.000000 0.007285 0.999973
vn -0.706951 0.020988 0.706951
vn 0.052522 -0.997238 0.052522
vn 0.706951 0.020988 0.706951
vn 0.348168 0.870378 0.348168
vn -0.000000 0.860693 0.509125
vn -0.348168 0.870378 0.348168
vn -0.015996 0.999744 0.015996
vn 0.000000 0.999872 0.015998
vn 0.000000 1.000000 0.000000
vn -0.015998 0.999872 0.000000
vn 0.015996 0.999744 0.015996
vn 0.015998 0.999872 0.000000
vn 0.015996 0.999744 -0.015996
vn 0.000000 0.999872 -0.015998
vn -0.015996 0.999744 -0.015996
vn -0.348168 0.870378 -0.348168
vn 0.000000 0.860693 -0.509125
vn -0.000000 0.007284 -0.999973
vn -0.706951 0.020988 -0.706951
vn 0.348168 0.870378 -0.348168
vn 0.706951 0.020988 -0.706951
vn 0.052522 -0.997238 -0.052522
vn -0.000000 -0.998961 -0.045582
vn -0.052522 -0.997238 -0.052522
vn 0.000000 -1.000000 0.000000
vn -0.045582 -0.998961 0.000000
vn 0.045582 -0.998961 0.000000
vn 0.999973 0.007284 0.000000
vn 0.509125 0.860693 0.000000
vn -0.999973 0.007284 -0.000000
vn -0.509125 0.860693 0.000000
vn -0.126088 0.938055 0.322730
vn -0.000000 0.945602 0.325327
vn -0.000000 0.945602 0.325327
vn -0.126088 0.938055 0.322730
vn -0.325327 0.945602 0.000000
vn -0.322730 0.938055 0.126088
vn -0.322730 0.938055 0.126088
vn -0.325327 0.945602 0.000000
vn 0.126088 0.938055 0.322731
vn 0.126088 0.938055 0.322731
vn 0.322730 0.938055 0.126088
vn 0.325327 0.945602 0.000000
vn 0.325327 0.945602 0.000000
vn 0.322730 0.938055 0.126088
vn 0.322730 0.938055 -0.126088
vn 0.322730 0.938055 -0.126088
vn 0.126088 0.938055 -0.322731
vn 0.000000 0.945602 -0.325327
vn 0.000000 0.945602 -0.325327
vn 0.126088 0.938055 -0.322731
vn -0.126088 0.938055 -0.322731
vn -0.126088 0.938055 -0.322731
vn -0.322730 0.938055 -0.126088
vn -0.322730 0.938055 -0.126088
s 1
g pCube1
usemtl initialShadingGroup
f 1/1/1 15/2/2 21/40/3 18/35/4
f 15/2/2 2/5/5 16/6/6 21/40/3
f 21/3/3 16/38/6 4/7/7 17/8/8
f 18/4/4 21/3/3 17/8/8 3/9/9
s 2
f 26/10/10 27/11/11 28/12/12 29/13/13
f 27/11/11 30/14/14 31/15/15 28/12/12
f 28/12/12 31/15/15 32/16/16 33/17/17
f 29/13/13 28/12/12 33/17/17 34/18/18
s 1
f 5/19/19 20/20/20 22/39/21 12/37/22
f 20/20/20 6/23/23 10/24/24 22/39/21
f 22/21/21 10/24/24 8/25/25 11/26/26
f 12/22/22 22/21/21 11/26/26 7/27/27
f 7/27/27 11/26/26 23/28/28 14/29/29
f 11/26/26 8/25/25 13/30/30 23/28/28
f 23/28/28 13/30/30 2/5/5 15/2/2
f 14/29/29 23/28/28 15/2/2 1/1/1
f 2/5/5 13/30/30 24/31/31 16/6/6
f 13/30/30 8/25/25 10/24/24 24/31/31
f 24/31/31 10/24/24 6/23/23 19/32/32
f 16/38/6 24/31/31 19/32/32 4/7/7
f 7/27/27 14/29/29 25/36/33 12/22/22
f 14/29/29 1/1/1 18/35/4 25/36/33
f 25/33/33 18/4/4 3/9/9 9/34/34
f 12/37/22 25/33/33 9/34/34 5/19/19
s 4
f 3/9/35 17/8/36 27/11/37 26/10/38
s 5
f 9/34/39 3/9/40 26/10/41 29/13/42
s 4
f 17/8/36 4/7/43 30/14/44 27/11/37
s 6
f 4/7/45 19/32/46 31/15/47 30/14/48
f 19/32/46 6/23/49 32/16/50 31/15/47
s 7
f 6/23/51 20/20/52 33/17/53 32/16/54
f 20/20/52 5/19/55 34/18/56 33/17/53
s 5
f 5/19/57 9/34/39 29/13/42 34/18/58
